<svg width="19" height="19" viewBox="0 0 19 19" fill="none" xmlns="http://www.w3.org/2000/svg">
<path d="M9.5 1.1875C4.90957 1.1875 1.1875 4.90957 1.1875 9.5C1.1875 14.0904 4.90957 17.8125 9.5 17.8125C14.0904 17.8125 17.8125 14.0904 17.8125 9.5C17.8125 4.90957 14.0904 1.1875 9.5 1.1875ZM12.5986 12.9437C11.8453 13.6377 10.8174 14.0459 9.59092 14.0459C7.81523 14.0459 6.27891 13.0272 5.53115 11.5429C5.22314 10.9287 5.04688 10.2348 5.04688 9.5C5.04688 8.76523 5.22314 8.07129 5.53115 7.45713C6.27891 5.9709 7.81523 4.95225 9.59092 4.95225C10.8155 4.95225 11.8435 5.40313 12.632 6.13604L11.3295 7.44043C10.8582 6.98955 10.2589 6.76133 9.59277 6.76133C8.40898 6.76133 7.40703 7.56104 7.04893 8.63535C6.95801 8.90811 6.90605 9.19941 6.90605 9.5C6.90605 9.80059 6.95801 10.0919 7.04893 10.3646C7.40703 11.439 8.40898 12.2387 9.59092 12.2387C10.2032 12.2387 10.7228 12.0772 11.1291 11.8045C11.6115 11.4816 11.9307 11.0011 12.0364 10.4314H9.59092V8.67246H13.8715C13.9253 8.97119 13.9531 9.28105 13.9531 9.60205C13.9531 10.9881 13.4577 12.1515 12.5986 12.9437V12.9437Z" fill="white"/>
</svg>
