<svg width="486" height="202" viewBox="0 0 486 202" fill="none" xmlns="http://www.w3.org/2000/svg">
<path d="M342.289 197.14L358.978 182.119C362.899 178.59 367.772 176.292 372.99 175.513C378.208 174.733 383.54 175.506 388.322 177.736C392.257 179.57 396.577 180.424 400.914 180.224C405.251 180.025 409.475 178.779 413.225 176.592L427.892 168.036C432.969 165.074 438.878 163.858 444.712 164.575C450.547 165.291 455.985 167.899 460.196 172.001L486 197.14H342.289Z" fill="#85C66A"/>
<path d="M102.729 197.14L119.418 182.119C123.339 178.59 128.212 176.292 133.43 175.513C138.648 174.733 143.98 175.506 148.762 177.736V177.736C152.697 179.57 157.018 180.424 161.354 180.224C165.691 180.025 169.915 178.779 173.666 176.592L188.332 168.036C193.41 165.074 199.318 163.858 205.153 164.575C210.987 165.291 216.426 167.899 220.636 172.001L246.441 197.14H102.729Z" fill="#85C66A"/>
<path d="M204.436 158.352H199.003V159.13C194.975 160.304 191.436 162.754 188.918 166.111C186.4 169.467 185.039 173.55 185.039 177.746C185.039 181.942 186.4 186.024 188.918 189.381C191.436 192.738 194.975 195.187 199.003 196.362V197.14H204.436C209.579 197.14 214.512 195.097 218.15 191.46C221.787 187.823 223.83 182.891 223.83 177.748C223.83 172.605 221.787 167.672 218.15 164.036C214.512 160.399 209.579 158.356 204.436 158.356V158.352Z" fill="#201E2D"/>
<path d="M199.003 197.14C209.716 197.14 218.4 188.457 218.4 177.746C218.4 167.035 209.716 158.352 199.003 158.352C188.291 158.352 179.607 167.035 179.607 177.746C179.607 188.457 188.291 197.14 199.003 197.14Z" fill="#27262B"/>
<path d="M285.91 65.4743H100.149V179.372H285.91V65.4743Z" fill="#DDDDED"/>
<path d="M365.584 65.4743H285.91V179.372H365.584V65.4743Z" fill="#6992CC"/>
<path d="M397.582 158.352H392.148V159.13C388.119 160.304 384.581 162.754 382.063 166.111C379.545 169.467 378.184 173.55 378.184 177.746C378.184 181.942 379.545 186.024 382.063 189.381C384.581 192.738 388.119 195.187 392.148 196.362V197.14H397.582C402.726 197.14 407.659 195.097 411.296 191.46C414.933 187.823 416.977 182.891 416.977 177.748C416.977 172.605 414.933 167.672 411.296 164.036C407.659 160.399 402.726 158.356 397.582 158.356V158.352Z" fill="#201E2D"/>
<path d="M392.156 197.14C402.868 197.14 411.552 188.457 411.552 177.746C411.552 167.035 402.868 158.352 392.156 158.352C381.444 158.352 372.76 167.035 372.76 177.746C372.76 188.457 381.444 197.14 392.156 197.14Z" fill="#27262B"/>
<path d="M426.532 179.61H319.931V84.5612H373.669C375.841 84.5617 377.95 85.29 379.659 86.6298C381.368 87.9697 382.579 89.8437 383.097 91.9524L383.184 92.3201L391.431 125.995C391.743 127.267 392.31 128.462 393.096 129.509C393.883 130.556 394.874 131.432 396.009 132.086C396.958 132.646 397.999 133.034 399.083 133.231L413.265 135.857C415.025 136.185 416.66 136.992 417.99 138.19C419.32 139.388 420.292 140.93 420.801 142.646L427.886 166.65L430.245 174.639C430.415 175.217 430.448 175.826 430.341 176.418C430.235 177.011 429.992 177.57 429.632 178.053C429.271 178.535 428.804 178.927 428.266 179.197C427.728 179.468 427.134 179.609 426.532 179.61V179.61Z" fill="#EEF6FF"/>
<path d="M380.447 97.9841C379.988 96.3553 379.009 94.9211 377.66 93.9C376.311 92.8789 374.664 92.3269 372.972 92.3281H331.298C329.606 92.3269 327.96 92.8789 326.61 93.9C325.261 94.9211 324.282 96.3553 323.824 97.9841L324.046 132.086H390.007L380.447 97.9841Z" fill="#A4DFFF"/>
<path d="M341.515 134.025L350.273 136.499L366.481 142.638H420.801C420.292 140.922 419.32 139.38 417.99 138.182C416.66 136.984 415.025 136.177 413.265 135.849L399.083 133.223L341.515 134.025Z" fill="#D9EBFC"/>
<path d="M426.532 179.61H372.554C371.526 179.61 370.541 179.203 369.813 178.477C369.086 177.752 368.675 176.767 368.673 175.74V166.65H427.886L430.245 174.639C430.415 175.217 430.448 175.826 430.341 176.418C430.235 177.011 429.992 177.57 429.632 178.053C429.271 178.535 428.804 178.927 428.266 179.197C427.728 179.468 427.134 179.609 426.532 179.61V179.61Z" fill="#7CB4F7"/>
<path d="M372.212 179.61H295.952V84.5612H319.349C321.521 84.5617 323.63 85.29 325.339 86.6298C327.048 87.9697 328.259 89.8437 328.777 91.9524L328.866 92.3201L337.111 125.995C337.557 127.809 338.516 129.455 339.873 130.738C341.23 132.022 342.928 132.887 344.763 133.231L358.945 135.857C360.705 136.184 362.34 136.992 363.67 138.19C365 139.388 365.973 140.93 366.481 142.646L373.572 166.65L375.934 174.639C376.103 175.217 376.135 175.827 376.028 176.42C375.921 177.013 375.677 177.573 375.316 178.055C374.955 178.538 374.487 178.929 373.948 179.199C373.409 179.469 372.815 179.61 372.212 179.61V179.61Z" fill="#EDEDED"/>
<path d="M300.775 92.314L302.714 132.08H331.806L322.248 97.9841C321.789 96.3555 320.81 94.9215 319.461 93.9004C318.111 92.8794 316.465 92.3273 314.773 92.3281L300.775 92.314Z" fill="#A4DFFF"/>
<path d="M373.572 166.65L375.933 174.635C376.104 175.214 376.138 175.824 376.032 176.418C375.925 177.012 375.682 177.573 375.32 178.057C374.959 178.54 374.49 178.933 373.95 179.203C373.411 179.473 372.816 179.614 372.212 179.614H295.964V166.65H373.572Z" fill="#83ABE5"/>
<path d="M332.783 132.086H323.086C322.572 132.086 322.079 131.881 321.715 131.518C321.351 131.154 321.147 130.661 321.147 130.147V126.266C321.147 125.752 321.351 125.259 321.715 124.895C322.079 124.531 322.572 124.327 323.086 124.327H329.876C330.391 124.327 330.884 124.531 331.248 124.895C331.611 125.259 331.816 125.752 331.816 126.266L334.727 130.147C334.727 130.402 334.676 130.654 334.579 130.89C334.481 131.125 334.338 131.339 334.157 131.519C333.977 131.699 333.763 131.842 333.527 131.939C333.291 132.037 333.038 132.086 332.783 132.086V132.086Z" fill="#4E5F75"/>
<path d="M382.647 90.5647L295.952 90.3809V84.5612H373.669C378.142 84.5612 381.493 85.8621 382.558 90.197L382.647 90.5647Z" fill="#F4BE47"/>
<path d="M328.866 90.3809H295.952V84.5612H319.349C323.822 84.5612 327.711 85.6763 328.777 90.0152L328.866 90.3809Z" fill="#FFD364"/>
<path d="M382.576 162.01C385.969 162.01 388.72 159.26 388.72 155.867C388.72 152.475 385.969 149.724 382.576 149.724C379.183 149.724 376.433 152.475 376.433 155.867C376.433 159.26 379.183 162.01 382.576 162.01Z" fill="white"/>
<path d="M415.233 162.01C418.626 162.01 421.377 159.26 421.377 155.867C421.377 152.475 418.626 149.724 415.233 149.724C411.84 149.724 409.09 152.475 409.09 155.867C409.09 159.26 411.84 162.01 415.233 162.01Z" fill="white"/>
<path d="M391.344 153.962L391.988 159.764C392.068 160.475 392.407 161.133 392.941 161.61C393.474 162.087 394.165 162.351 394.881 162.351H404.637C405.064 162.352 405.485 162.258 405.872 162.077C406.258 161.896 406.6 161.633 406.873 161.305C407.146 160.977 407.344 160.594 407.452 160.181C407.561 159.768 407.577 159.337 407.5 158.917L406.451 153.116C406.33 152.445 405.977 151.838 405.454 151.401C404.931 150.964 404.27 150.724 403.589 150.724H394.235C393.825 150.724 393.42 150.811 393.046 150.978C392.672 151.146 392.337 151.39 392.064 151.696C391.791 152.002 391.586 152.362 391.462 152.752C391.338 153.143 391.297 153.555 391.344 153.962Z" fill="#2B8EE0"/>
<path d="M334.531 158.352H329.096V159.13C325.068 160.304 321.529 162.754 319.011 166.111C316.494 169.467 315.133 173.55 315.133 177.746C315.133 181.942 316.494 186.024 319.011 189.381C321.529 192.738 325.068 195.187 329.096 196.362V197.14H334.531C339.675 197.14 344.608 195.097 348.245 191.46C351.882 187.823 353.925 182.891 353.925 177.748C353.925 172.605 351.882 167.672 348.245 164.036C344.608 160.399 339.675 158.356 334.531 158.356V158.352Z" fill="#201E2D"/>
<path d="M329.096 197.14C339.809 197.14 348.493 188.457 348.493 177.746C348.493 167.035 339.809 158.352 329.096 158.352C318.384 158.352 309.7 167.035 309.7 177.746C309.7 188.457 318.384 197.14 329.096 197.14Z" fill="#27262B"/>
<path d="M329.096 191.46C336.671 191.46 342.812 185.32 342.812 177.746C342.812 170.172 336.671 164.032 329.096 164.032C321.522 164.032 315.381 170.172 315.381 177.746C315.381 185.32 321.522 191.46 329.096 191.46Z" fill="white"/>
<path d="M255.556 102.469H147.885V142.638H255.556V102.469Z" fill="#C7C7E2"/>
<path d="M142.136 158.352H136.701V159.13C132.673 160.304 129.134 162.754 126.616 166.111C124.098 169.467 122.737 173.55 122.737 177.746C122.737 181.942 124.098 186.024 126.616 189.381C129.134 192.738 132.673 195.187 136.701 196.362V197.14H142.136C147.279 197.14 152.212 195.097 155.85 191.46C159.487 187.823 161.53 182.891 161.53 177.748C161.53 172.605 159.487 167.672 155.85 164.036C152.212 160.399 147.279 158.356 142.136 158.356V158.352Z" fill="#201E2D"/>
<path d="M136.701 197.14C147.414 197.14 156.098 188.457 156.098 177.746C156.098 167.035 147.414 158.352 136.701 158.352C125.989 158.352 117.305 167.035 117.305 177.746C117.305 188.457 125.989 197.14 136.701 197.14Z" fill="#27262B"/>
<path d="M136.701 191.46C144.276 191.46 150.417 185.32 150.417 177.746C150.417 170.172 144.276 164.032 136.701 164.032C129.126 164.032 122.986 170.172 122.986 177.746C122.986 185.32 129.126 191.46 136.701 191.46Z" fill="white"/>
<path d="M259.33 198.639H0.125255C0.0560784 198.639 0 198.695 0 198.764V201.875C0 201.944 0.0560784 202 0.125255 202H259.33C259.399 202 259.455 201.944 259.455 201.875V198.764C259.455 198.695 259.399 198.639 259.33 198.639Z" fill="#E3EEFF"/>
<path d="M206.834 0H293.607C296.125 0 298.54 1.00026 300.321 2.78073C302.102 4.5612 303.102 6.97603 303.102 9.494V190.173C303.102 192.691 302.102 195.106 300.321 196.886C298.54 198.667 296.125 199.667 293.607 199.667H206.834C206.606 199.667 206.387 199.576 206.225 199.415C206.064 199.253 205.973 199.035 205.973 198.806V0.86052C205.973 0.632296 206.064 0.413419 206.225 0.25204C206.387 0.0906617 206.606 0 206.834 0V0Z" fill="#2F2F68"/>
<path d="M279.997 0H206.161C199.729 0 194.514 5.21378 194.514 11.6453V188.022C194.514 194.453 199.729 199.667 206.161 199.667H279.997C286.429 199.667 291.643 194.453 291.643 188.022V11.6453C291.643 5.21378 286.429 0 279.997 0Z" fill="#FFD364"/>
<path d="M279.651 2.39774H206.506C201.208 2.39774 196.912 6.69266 196.912 11.9907V166.688C196.912 171.986 201.208 176.281 206.506 176.281H279.651C284.95 176.281 289.245 171.986 289.245 166.688V11.9907C289.245 6.69266 284.95 2.39774 279.651 2.39774Z" fill="white"/>
<path d="M285.025 198.384C285.269 198.261 285.506 198.13 285.74 197.992C285.506 198.13 285.269 198.261 285.025 198.384Z" fill="#EAF4FF"/>
<path d="M285.025 1.2827C285.269 1.40592 285.506 1.5352 285.74 1.67458C285.506 1.5352 285.269 1.414 285.025 1.2827Z" fill="#EAF4FF"/>
<path d="M299.124 15.9883H296.156C296.093 15.9883 296.041 16.0398 296.041 16.1034V29.4637C296.041 29.5273 296.093 29.5789 296.156 29.5789H299.124C299.188 29.5789 299.239 29.5273 299.239 29.4637V16.1034C299.239 16.0398 299.188 15.9883 299.124 15.9883Z" fill="white"/>
<path d="M240.061 196.069C244.482 196.069 248.067 192.485 248.067 188.064C248.067 183.643 244.482 180.059 240.061 180.059C235.639 180.059 232.054 183.643 232.054 188.064C232.054 192.485 235.639 196.069 240.061 196.069Z" fill="#2F2F68"/>
<path d="M259.433 6.26807H233.404C233.356 6.26807 233.317 6.30695 233.317 6.35493V8.51027C233.317 8.55824 233.356 8.59713 233.404 8.59713H259.433C259.481 8.59713 259.519 8.55824 259.519 8.51027V6.35493C259.519 6.30695 259.481 6.26807 259.433 6.26807Z" fill="#2F2F68"/>
<path d="M231.677 6.26807H229.521C229.473 6.26807 229.434 6.30695 229.434 6.35493V8.51027C229.434 8.55824 229.473 8.59713 229.521 8.59713H231.677C231.725 8.59713 231.763 8.55824 231.763 8.51027V6.35493C231.763 6.30695 231.725 6.26807 231.677 6.26807Z" fill="#2F2F68"/>
<path d="M277.023 63.226H238.665V102.448H277.023V63.226Z" fill="#D8A46C"/>
<path d="M238.665 63.226H209.567V102.448H238.665V63.226Z" fill="#BC8957"/>
<path d="M273.744 80.4182H258.984V89.9829H273.744V80.4182Z" fill="white"/>
<path d="M277.263 124.327H209.139C209.083 124.327 209.038 124.372 209.038 124.428V142.537C209.038 142.593 209.083 142.638 209.139 142.638H277.263C277.319 142.638 277.364 142.593 277.364 142.537V124.428C277.364 124.372 277.319 124.327 277.263 124.327Z" fill="#1E95F6"/>
<path d="M183.179 47.2054C178.732 47.2054 174.467 48.9718 171.322 52.116C168.177 55.2603 166.411 59.5248 166.411 63.9714C166.411 59.5248 164.644 55.2603 161.5 52.116C158.355 48.9718 154.09 47.2054 149.643 47.2054C154.09 47.2054 158.355 45.439 161.5 42.2947C164.644 39.1505 166.411 34.886 166.411 30.4394C166.411 34.886 168.177 39.1505 171.322 42.2947C174.467 45.439 178.732 47.2054 183.179 47.2054Z" fill="#F9B121"/>
<path d="M324.662 119.491C324.041 118.534 323.238 117.708 322.297 117.061C321.357 116.414 320.298 115.959 319.182 115.721C318.066 115.483 316.914 115.468 315.791 115.676C314.669 115.883 313.599 116.31 312.642 116.932C313.599 116.311 314.425 115.508 315.071 114.568C315.718 113.628 316.173 112.569 316.411 111.453C316.649 110.338 316.664 109.186 316.457 108.064C316.249 106.942 315.822 105.872 315.201 104.915C315.822 105.872 316.626 106.698 317.566 107.345C318.506 107.992 319.565 108.447 320.681 108.685C321.797 108.923 322.95 108.938 324.072 108.73C325.194 108.523 326.264 108.096 327.222 107.474C326.264 108.095 325.439 108.898 324.792 109.838C324.145 110.778 323.69 111.836 323.452 112.952C323.214 114.068 323.199 115.22 323.406 116.342C323.614 117.464 324.041 118.534 324.662 119.491V119.491Z" fill="#F9B121"/>
<path d="M86.7651 199.56L103.454 184.539C107.375 181.01 112.248 178.713 117.466 177.934C122.683 177.154 128.015 177.927 132.796 180.156V180.156C136.731 181.99 141.052 182.844 145.388 182.645C149.725 182.446 153.949 181.2 157.7 179.012L172.369 170.458C177.446 167.496 183.354 166.279 189.188 166.995C195.023 167.711 200.462 170.319 204.672 174.421L230.477 199.56H86.7651Z" fill="#85C66A"/>
<path d="M77.2417 157.116H35.7319V199.56H77.2417V157.116Z" fill="#D8A46C"/>
<path d="M35.7319 157.116H4.24451V199.56H35.7319V157.116Z" fill="#BC8957"/>
<path d="M73.6922 175.722H57.7202V186.072H73.6922V175.722Z" fill="white"/>
<path d="M134.871 157.116H93.3612V199.56H134.871V157.116Z" fill="#D8A46C"/>
<path d="M93.3611 157.116H61.8737V199.56H93.3611V157.116Z" fill="#BC8957"/>
<path d="M131.321 175.722H115.349V186.072H131.321V175.722Z" fill="white"/>
<path d="M107.176 114.671H65.6657V157.116H107.176V114.671Z" fill="#D8A46C"/>
<path d="M65.6657 114.671H34.1783V157.116H65.6657V114.671Z" fill="#BC8957"/>
<path d="M103.626 133.278H87.654V143.628H103.626V133.278Z" fill="white"/>
<path d="M169.803 158.942H130.079V199.56H169.803V158.942Z" fill="#D8A46C"/>
<path d="M99.939 158.942H139.663L131.172 142.822H91.448L99.939 158.942Z" fill="#BC8957"/>
<path d="M99.9471 158.942L129.398 156.865L134.37 148.89L139.663 158.942H99.9471Z" fill="#B7773D"/>
<path d="M169.803 158.942H130.079L138.572 142.822H178.296L169.803 158.942Z" fill="#D8A46C"/>
<path d="M130.081 158.942H99.9471V199.56H130.081V158.942Z" fill="#BC8957"/>
<path d="M166.407 176.748H151.122V186.654H166.407V176.748Z" fill="white"/>
</svg>
